<?xml version="1.0" encoding="utf-8"?>
<!-- Generator: Adobe Illustrator 27.0.0, SVG Export Plug-In . SVG Version: 6.00 Build 0)  -->
<svg version="1.1" id="Ebene_1" xmlns="http://www.w3.org/2000/svg" xmlns:xlink="http://www.w3.org/1999/xlink" x="0px" y="0px"
	 viewBox="0 0 100 100" style="enable-background:new 0 0 100 100;" xml:space="preserve">
<style type="text/css">
	.st0{display:none;fill:none;}
	.st1{display:none;opacity:0.3;fill:#5173B6;}
	.st2{opacity:0.3;fill:#5173B6;}
	.st3{fill:#80B7E2;}
	.st4{fill:#5173B6;}
	.st5{fill:none;}
</style>
<g>
	<path class="st0" d="M79.23,66.35c-1.88-3.14-3.73-6.3-5.59-9.45c-0.06-0.1-0.13-0.18-0.23-0.33c-2,3.47-4,6.93-5.99,10.39
		l11.95,0.05C79.41,66.81,79.38,66.61,79.23,66.35z"/>
	<path class="st1" d="M79.21,67.41c-2.17,3.71-4.32,7.42-6.48,11.14c-0.08,0.14-0.15,0.29-0.26,0.51c0.25,0,0.43,0,0.6,0
		c4.31,0,8.61,0.01,12.92,0c0.36,0,0.57,0.1,0.75,0.43c0.81,1.44,1.64,2.86,2.46,4.29c0.09,0.16,0.2,0.3,0.3,0.45V67.05l-10.13-0.04
		C79.35,67.14,79.3,67.27,79.21,67.41z"/>
	<path class="st1" d="M20.57,69.04v3.37v8.17h27.8c2.34,0,4.14,1.7,4.34,4.03c0.01,0.14,0.02,0.28,0.02,0.42
		c0,2.37-1.63,4.19-3.87,4.43h5.6c4.32-7.5,8.64-14.99,12.96-22.48l-46.86-0.18V69.04z"/>
	<polygon class="st1" points="83.53,35.41 53.04,15.99 21.62,35.41 20.61,36.03 84.5,36.03 	"/>
	<path class="st2" d="M88.93,38.09c-0.77-0.01-1.56-0.23-2.3-0.71l-2.13-1.35h-63.9l-0.04,0.03v8.67v22.06l46.86,0.18
		c2-3.46,3.99-6.93,5.99-10.39c0.1,0.14,0.17,0.23,0.23,0.33c1.86,3.15,3.71,6.31,5.59,9.45c0.15,0.25,0.18,0.45,0.14,0.66
		l10.13,0.04v-29C89.31,38.08,89.12,38.1,88.93,38.09z"/>
</g>
<path class="st3" d="M65.45,43.43c0.17-0.28,0.17-0.48,0-0.77c-0.89-1.5-1.75-3.01-2.62-4.51c-0.07-0.13-0.11-0.27-0.17-0.4
	c-2.03,0-4.06,0-6.09,0c-0.57,1.01-1.13,2.03-1.71,3.03c-1.67,2.89-3.35,5.78-5.03,8.67c-0.07,0.12-0.15,0.22-0.25,0.38
	c-0.09-0.12-0.16-0.2-0.22-0.3c-2.2-3.83-4.39-7.66-6.59-11.49c-0.05-0.09-0.08-0.19-0.12-0.29c-3.73,0-7.46,0-11.19,0
	c-0.29,0.03-0.58,0.07-0.91,0.11c8.73,15.13,17.43,30.2,26.16,45.33c0.12-0.19,0.22-0.33,0.3-0.47c1.85-3.21,3.69-6.43,5.54-9.63
	c0.15-0.27,0.16-0.46,0-0.73c-2.22-3.85-4.43-7.71-6.66-11.56c-0.19-0.34-0.22-0.58-0.01-0.93C59.08,54.38,62.26,48.9,65.45,43.43z"
	/>
<path class="st4" d="M45.04,65.41c-0.1-0.19-0.17-0.32-0.24-0.45c-1.83-3.16-3.66-6.31-5.47-9.47c-0.18-0.32-0.38-0.44-0.75-0.43
	c-4.43,0.01-8.85,0-13.28,0.01c-0.39,0-0.59-0.13-0.78-0.46c-0.87-1.52-1.74-3.04-2.61-4.55v15.37
	C29.62,65.41,37.33,65.41,45.04,65.41z"/>
<path class="st4" d="M91.23,29.77l-1.73-1.1L57.63,8.36l-2.25-1.43c-1.33-0.85-3.22-0.86-4.58-0.01l-2.34,1.45L15.65,28.64
	l-0.81,0.5l-0.27,0.16c-0.87,0.53-1.95,1.18-2.53,2.56c-0.07,0.16-0.11,0.31-0.15,0.46c-0.22,0.74-0.23,1.44-0.22,2.02l0,10.99
	c0,0,0,0,0,0l0,21.25l0,1.42l0,4.97c0,0,0,0,0,0v0.05c0,0,0,0,0,0l0,3.14l0,2.38l0,6.46c0,2.25,1.78,4.18,3.98,4.42
	c0.15,0.02,0.31,0.03,0.47,0.03h32.25c2.48,0,4.36-1.91,4.36-4.45c0-0.14-0.01-0.28-0.02-0.42c-0.2-2.32-1.99-4.03-4.34-4.03h-27.8
	v-8.17v-3.37V44.73v-8.67l1.05-0.65l31.42-19.42l30.49,19.42l3.1,1.98c0.74,0.47,1.53,0.7,2.3,0.71c0.19,0,0.39-0.01,0.58-0.04
	c1.19-0.16,2.29-0.85,3.03-2.03C93.73,34.16,93.68,31.33,91.23,29.77z"/>
<path class="st5" d="M73.41,56.58c-6.32,10.96-12.63,21.91-18.96,32.87c-0.01,0.01-0.01,0.02-0.02,0.03
	C60.77,78.5,67.09,67.55,73.41,56.58z"/>
<path class="st5" d="M48.37,89.48c0.17,0,0.33-0.01,0.49-0.03H15.65c0.15,0.02,0.31,0.03,0.47,0.03H48.37z"/>
<path class="st4" d="M86.66,89.15c0.81-1.45,1.65-2.89,2.48-4.33c0.1-0.18,0.24-0.34,0.36-0.5v-0.09c-0.1-0.15-0.21-0.29-0.3-0.45
	c-0.83-1.43-1.66-2.85-2.46-4.29c-0.18-0.32-0.39-0.43-0.75-0.43c-4.31,0.01-8.61,0.01-12.92,0c-0.17,0-0.35,0-0.6,0
	c0.12-0.23,0.18-0.38,0.26-0.51c2.16-3.71,4.31-7.43,6.48-11.14c0.22-0.37,0.26-0.65,0.02-1.06c-1.88-3.14-3.73-6.3-5.59-9.45
	c-0.06-0.1-0.13-0.18-0.23-0.33c-6.32,10.96-12.64,21.91-18.96,32.88l31.92-0.01C86.49,89.39,86.58,89.29,86.66,89.15z"/>
</svg>
